# xmcd
#
# Track frame offsets:
#	150
#	18378
#	34413
#	49365
#	66563
#	85320
#	105790
#	122480
#	140395
#	156543
#	170765
#	188050
#	206490
#	225243
#	242063
#	260593
#
# Disc length: 3708 seconds
#
# Revision: 1
# Processed by: cddbd v1.5PL3 Copyright (c) Steve Scherf et al.
# Submitted via: CDex 1.50Beta5
#
DISCID=df0e7a10
DTITLE=八代亜紀 - オリジナルベスト16
DYEAR=1986
DGENRE=Enka
TTITLE0=なみだ恋
TTITLE1=愛ひとすじ
TTITLE2=おんなの夢
TTITLE3=花水仙
TTITLE4=もう一度逢いたい
TTITLE5=おんな港町
TTITLE6=恋歌
TTITLE7=愛の終着駅
TTITLE8=舟唄
TTITLE9=雨の慕情
TTITLE10=あなたと生きる
TTITLE11=海猫
TTITLE12=なみだ川
TTITLE13=ブルーレイン大阪
TTITLE14=恋瀬川
TTITLE15=北の旅人
EXTD=
EXTT0=
EXTT1=
EXTT2=
EXTT3=
EXTT4=
EXTT5=
EXTT6=
EXTT7=
EXTT8=
EXTT9=
EXTT10=
EXTT11=
EXTT12=
EXTT13=
EXTT14=
EXTT15=
PLAYORDER=
